<?xml version="1.0" encoding="UTF-8" standalone="no"?>
<!-- Created with Inkscape (http://www.inkscape.org/) -->

<svg
   xmlns:dc="http://purl.org/dc/elements/1.1/"
   xmlns:cc="http://creativecommons.org/ns#"
   xmlns:rdf="http://www.w3.org/1999/02/22-rdf-syntax-ns#"
   xmlns:svg="http://www.w3.org/2000/svg"
   xmlns="http://www.w3.org/2000/svg"
   xmlns:sodipodi="http://sodipodi.sourceforge.net/DTD/sodipodi-0.dtd"
   xmlns:inkscape="http://www.inkscape.org/namespaces/inkscape"
   width="242.43643mm"
   height="126.89243mm"
   viewBox="0 0 242.43643 126.89242"
   version="1.1"
   id="svg8"
   inkscape:version="0.92.3 (2405546, 2018-03-11)"
   sodipodi:docname="repos.svg">
  <defs
     id="defs2" />
  <sodipodi:namedview
     id="base"
     pagecolor="#ffffff"
     bordercolor="#666666"
     borderopacity="1.0"
     inkscape:pageopacity="0.0"
     inkscape:pageshadow="2"
     inkscape:zoom="0.49497475"
     inkscape:cx="277.10597"
     inkscape:cy="514.49262"
     inkscape:document-units="mm"
     inkscape:current-layer="g946"
     showgrid="false"
     inkscape:window-width="1853"
     inkscape:window-height="1025"
     inkscape:window-x="67"
     inkscape:window-y="27"
     inkscape:window-maximized="1" />
  <metadata
     id="metadata5">
    <rdf:RDF>
      <cc:Work
         rdf:about="">
        <dc:format>image/svg+xml</dc:format>
        <dc:type
           rdf:resource="http://purl.org/dc/dcmitype/StillImage" />
        <dc:title></dc:title>
      </cc:Work>
    </rdf:RDF>
  </metadata>
  <g
     inkscape:label="Camada 1"
     inkscape:groupmode="layer"
     id="layer1"
     transform="translate(15.864876,-137.75663)">
    <g
       id="g946">
      <g
         style="stroke-width:1.90186834"
         transform="matrix(0.52593354,0,0,0.52566397,-196.48699,-79.71936)"
         id="g908">
        <path
           inkscape:connector-curvature="0"
           id="path822"
           d="m 636.98416,573.34647 -105.00185,1.51205 4.91339,72.94903 102.85832,0.0808 z m -65.11592,9.78544 h 24.43882 c 2.33931,0 4.22247,1.88317 4.22247,4.22248 0,2.33932 -1.88316,4.22249 -4.22247,4.22249 h -24.43882 c -2.33931,0 -4.22248,-1.88317 -4.22248,-4.22249 0,-2.33931 1.88317,-4.22248 4.22248,-4.22248 z"
           style="fill:#000000;stroke:#000000;stroke-width:0.50320268px;stroke-linecap:butt;stroke-linejoin:miter;stroke-opacity:1"
           sodipodi:nodetypes="cccccsssssss" />
        <path
           inkscape:connector-curvature="0"
           id="path824"
           d="m 728.48421,557.6584 -92.31798,1.51205 4.64612,88.71793 85.07181,-0.53454 z m -59.30046,10.58725 h 24.43882 c 2.33931,0 4.22247,1.88317 4.22247,4.22248 0,2.33932 -1.88316,4.22249 -4.22247,4.22249 h -24.43882 c -2.33932,0 -4.22248,-1.88317 -4.22248,-4.22249 0,-2.33931 1.88316,-4.22248 4.22248,-4.22248 z"
           style="fill:#000000;stroke:#000000;stroke-width:0.50320268px;stroke-linecap:butt;stroke-linejoin:miter;stroke-opacity:1"
           sodipodi:nodetypes="cccccsssssss" />
        <path
           inkscape:connector-curvature="0"
           id="path826"
           d="m 473.00249,504.82788 -90.71436,-0.0916 -0.48327,18.43383 4.32758,48.90254 84.27,-2.93996 z m -58.76592,9.78544 h 24.43882 c 2.33931,0 4.22247,1.88317 4.22247,4.22248 0,2.33932 -1.88316,4.22249 -4.22247,4.22249 h -24.43882 c -2.33932,0 -4.22248,-1.88317 -4.22248,-4.22249 0,-2.33931 1.88316,-4.22248 4.22248,-4.22248 z"
           style="fill:#000000;stroke:#000000;stroke-width:0.50320268px;stroke-linecap:butt;stroke-linejoin:miter;stroke-opacity:1"
           sodipodi:nodetypes="ccccccsssssss" />
        <path
           style="fill:#000000;stroke:#000000;stroke-width:0.50320268px;stroke-linecap:butt;stroke-linejoin:miter;stroke-opacity:1"
           d="m 438.3197,571.68362 -94.61944,1.57718 5.1249,76.0914 h 85.94624 z m -61.29568,10.20696 h 25.49086 c 2.44002,0 4.40424,1.96429 4.40424,4.40436 0,2.44009 -1.96422,4.40438 -4.40424,4.40438 h -25.49086 c -2.44002,0 -4.40425,-1.96429 -4.40425,-4.40438 0,-2.44007 1.96423,-4.40436 4.40425,-4.40436 z"
           id="path828"
           inkscape:connector-curvature="0" />
        <path
           inkscape:connector-curvature="0"
           id="path830"
           d="m 435.97626,649.849 99.78513,-1.64255 -5.40469,-79.24468 h -90.63842 z"
           style="fill:#000000;stroke:#000000;stroke-width:0.50320268px;stroke-linecap:butt;stroke-linejoin:miter;stroke-opacity:1"
           sodipodi:nodetypes="ccccc" />
        <path
           style="fill:#000000;stroke:#000000;stroke-width:0.50320268px;stroke-linecap:butt;stroke-linejoin:miter;stroke-opacity:1"
           d="m 804.13314,567.81543 -75.41664,1.32751 -1.77399,78.2109 h 73.93642 z m -51.06373,11.53109 h 21.45803 c 2.05398,0 3.70746,1.65333 3.70746,3.70713 0,2.05381 -1.65348,3.70714 -3.70746,3.70714 h -21.45803 c -2.05399,0 -3.70746,-1.65333 -3.70746,-3.70714 0,-2.0538 1.65347,-3.70713 3.70746,-3.70713 z"
           id="path832"
           inkscape:connector-curvature="0"
           sodipodi:nodetypes="cccccsssssss" />
        <path
           inkscape:connector-curvature="0"
           style="fill:#000000;stroke:#000000;stroke-width:1.90186834px;stroke-linecap:butt;stroke-linejoin:miter;stroke-opacity:1"
           d="m 2413.9922,1845.2012 -359.0195,6.5761 19.4453,317.2813 329.6523,-3.7949 z m -229.666,41.4492 h 92.3672 c 8.8414,0 15.9589,7.1175 15.9589,15.959 0,8.8415 -7.1175,15.959 -15.9589,15.959 h -92.3672 c -8.8415,0 -15.959,-7.1175 -15.959,-15.959 0,-8.8415 7.1175,-15.959 15.959,-15.959 z"
           transform="scale(0.26458333)"
           id="path834" />
        <rect
           style="fill:#000000;fill-opacity:1;stroke:none;stroke-width:10.06405354;stroke-linecap:round;stroke-linejoin:round;stroke-miterlimit:4;stroke-dasharray:none;stroke-opacity:1;paint-order:normal"
           id="rect836"
           width="74.021744"
           height="37.781883"
           x="637.22461"
           y="520.85938" />
        <path
           sodipodi:nodetypes="cccccccc"
           style="fill:#000000;stroke:#000000;stroke-width:0.50320268px;stroke-linecap:butt;stroke-linejoin:miter;stroke-opacity:1"
           d="m 472.51912,569.13272 72.62698,-1.20606 -3.40401,-35.62403 3.59381,-22.56246 -17.55202,-1.86594 -53.00772,-1.39944 -2.76135,26.66411 z"
           id="path882"
           inkscape:connector-curvature="0" />
        <path
           inkscape:connector-curvature="0"
           style="fill:#000000;stroke:#000000;stroke-width:1.90186834px;stroke-linecap:butt;stroke-linejoin:miter;stroke-opacity:1"
           d="m 1846.7676,1657.8125 -5.7149,69.3535 -1.039,185.4668 212.8554,11.168 22.2364,-241.6914 z m 60.5332,35.8906 c 0.5402,-0.019 1.0853,-0.012 1.6367,0.024 l 92.1719,6.0039 c 8.8228,0.5745 15.4632,8.1381 14.8886,16.9609 -0.5745,8.8229 -8.1401,15.4632 -16.9628,14.8887 l -92.1719,-6.002 c -8.8228,-0.5745 -15.4613,-8.14 -14.8867,-16.9629 0.5386,-8.2714 7.2212,-14.6237 15.3242,-14.9121 z"
           transform="scale(0.26458333)"
           id="path884" />
        <path
           inkscape:connector-curvature="0"
           id="path889"
           d="m 625.35477,413.97641 -79.37508,3.02396 0.37768,72.94903 h 82.39911 l -0.37794,-60.0981 z m -51.96235,11.29735 h 24.43882 c 2.33931,0 4.22247,1.88317 4.22247,4.22248 0,2.33932 -1.88316,4.22249 -4.22247,4.22249 h -24.43882 c -2.33932,0 -4.22248,-1.88317 -4.22248,-4.22249 0,-2.33931 1.88316,-4.22248 4.22248,-4.22248 z"
           style="fill:#000000;stroke:#000000;stroke-width:0.50320268px;stroke-linecap:butt;stroke-linejoin:miter;stroke-opacity:1"
           sodipodi:nodetypes="ccccccsssssss" />
        <path
           inkscape:connector-curvature="0"
           id="path891"
           d="m 705.83688,455.49168 -72.54135,1.31665 3.92908,63.52187 h 65.89191 z m -46.99322,8.52087 h 19.54294 c 1.87067,0 3.37657,1.63981 3.37657,3.67682 0,2.03701 -1.5059,3.67682 -3.37657,3.67682 h -19.54294 c -1.87067,0 -3.37658,-1.63981 -3.37658,-3.67682 0,-2.03701 1.50591,-3.67682 3.37658,-3.67682 z"
           style="fill:#000000;stroke:#000000;stroke-width:0.50320268px;stroke-linecap:butt;stroke-linejoin:miter;stroke-opacity:1" />
        <path
           style="fill:#000000;stroke:#000000;stroke-width:0.50320268px;stroke-linecap:butt;stroke-linejoin:miter;stroke-opacity:1"
           d="m 801.82912,504.35234 -86.0505,-8.73032 -3.47394,63.54839 79.29315,9.26589 z m -55.16291,2.70869 19.41072,2.26942 c 1.85801,0.21723 3.1633,2.02082 2.92676,4.04404 -0.23654,2.02323 -1.92268,3.47708 -3.78069,3.25985 l -19.41073,-2.26941 c -1.85801,-0.21723 -3.16332,-2.02082 -2.92676,-4.04405 0.23654,-2.02323 1.92269,-3.47708 3.7807,-3.25985 z"
           id="path893"
           inkscape:connector-curvature="0"
           sodipodi:nodetypes="cccccsssssss" />
      </g>
      <rect
         y="259.62631"
         x="-13.147776"
         height="5.0227671"
         width="238.13715"
         id="rect929"
         style="fill:#000000;fill-opacity:1;stroke:none;stroke-width:5.29166698;stroke-linecap:round;stroke-linejoin:round;stroke-miterlimit:4;stroke-dasharray:none;stroke-opacity:1;paint-order:normal" />
    </g>
  </g>
</svg>
